<svg xmlns="http://www.w3.org/2000/svg" width="451.482" height="117.25" viewBox="0 0 451.482 117.25"><path d="M133.594,15.1C166.8,11.445,207.373,9,257.985,9s91.185,2.445,124.392,6.1c49.483,5.475,89.106,23.52,89.106,52.549s-39.622,47.108-89.106,52.549c-28.811,3.168-63.146,5.441-104.729,5.992-6.416.069-32.613.1-38.791,0-41.88-.517-76.393-2.789-105.323-5.992C111.02,117.714,95.1,114.029,79.18,106.66c-2.317-1.068-9.386-3.995-16.989-3.2-4.218.448-10.217,1.86-16.336,2.376-17.108,1.377-26.257-5.372-25.841-5.647.95-.654,10.514.448,18.178-3.512,4.871-2.514,9.445-6.646,11.049-9.435.594-1.033-.772-4.3-1.247-5.3a31.068,31.068,0,0,1-3.5-14.291C44.488,38.615,84.11,20.57,133.594,15.1Z" transform="translate(-20 -9)" fill="#fff"/></svg>