<svg xmlns="http://www.w3.org/2000/svg" width="451.482" height="117.25"><path d="M113.594 6.1C146.8 2.445 187.373 0 237.985 0s91.185 2.445 124.392 6.1c49.483 5.475 89.106 23.52 89.106 52.549s-39.622 47.108-89.106 52.549c-28.811 3.168-63.146 5.441-104.729 5.992-6.416.069-32.613.1-38.791 0-41.88-.517-76.393-2.789-105.323-5.992C91.02 108.714 75.1 105.029 59.18 97.66c-2.317-1.068-9.386-3.995-16.989-3.2-4.218.448-10.217 1.86-16.336 2.376C8.747 98.213-.402 91.464.014 91.189c.95-.654 10.514.448 18.178-3.512 4.871-2.514 9.445-6.646 11.049-9.435.594-1.033-.772-4.3-1.247-5.3a31.068 31.068 0 01-3.5-14.291C24.488 29.615 64.11 11.57 113.594 6.1z" fill="#fff"/></svg>